<?xml version="1.0" encoding="iso-8859-1"?>
<!-- Generator: Adobe Illustrator 19.0.0, SVG Export Plug-In . SVG Version: 6.00 Build 0)  -->
<svg version="1.1" id="Capa_1" xmlns="http://www.w3.org/2000/svg" xmlns:xlink="http://www.w3.org/1999/xlink" x="0px" y="0px"
	 viewBox="0 0 512 512" style="enable-background:new 0 0 512 512;" xml:space="preserve">
<path style="fill:#F082A6;" d="M464,0H128c-4.418,0-8,3.582-8,8v416c0,4.418,3.582,8,8,8h336c4.418,0,8-3.582,8-8V8
	C472,3.582,468.418,0,464,0z"/>
<path id="SVGCleanerId_0" style="fill:#FACF57;" d="M424,40H88c-4.418,0-8,3.582-8,8v416c0,4.418,3.582,8,8,8h336
	c4.418,0,8-3.582,8-8V48C432,43.582,428.418,40,424,40z"/>
<g>
	<path id="SVGCleanerId_0_1_" style="fill:#FACF57;" d="M424,40H88c-4.418,0-8,3.582-8,8v416c0,4.418,3.582,8,8,8h336
		c4.418,0,8-3.582,8-8V48C432,43.582,428.418,40,424,40z"/>
</g>
<path style="fill:#E1E0E4;" d="M297,80H48c-4.418,0-8,3.582-8,8v416c0,4.418,3.582,8,8,8h336c4.418,0,8-3.582,8-8V175L297,80z"/>
<path style="fill:#D2D1D6;" d="M392,175l-95-95h-16v87c0,13.233,10.767,24,24,24h87V175z"/>
<path style="fill:#F0F0F1;" d="M305,175h87l-95-95v87C297,171.418,300.582,175,305,175z"/>
<g>
</g>
<g>
</g>
<g>
</g>
<g>
</g>
<g>
</g>
<g>
</g>
<g>
</g>
<g>
</g>
<g>
</g>
<g>
</g>
<g>
</g>
<g>
</g>
<g>
</g>
<g>
</g>
<g>
</g>
</svg>
